# xmcd CD database file
#
# Track frame offsets:
#	150
#	15687
#	30612
#	46501
#	67909
#	85906
#	101617
#	116111
#	129955
#	148177
#	167214
#	183365
#	199279
#	215001
#
# Disc length: 3347 seconds
#
# Revision: 0
# Processed by: cddbd v1.5.2PL0 Copyright (c) Steve Scherf et al.
# Submitted via: CDex 1.75
#
DISCID=c30d110e
DTITLE=Jovan Maljokovic - Korak Do Sna
DYEAR=2012
DGENRE=Jazz
TTITLE0=Odlazim
TTITLE1=Sad i ovde
TTITLE2=Korak od sna
TTITLE3=Uhvati dan
TTITLE4=Ne govori vise
TTITLE5=Dodiri od svile
TTITLE6=Glas u tisini
TTITLE7=Kasno je
TTITLE8=Kad ljubav nestaje
TTITLE9=Da si znao
TTITLE10=Gde bi nam bio kraj
TTITLE11=Dobto jutro
TTITLE12=Grad
TTITLE13=Ponocni medley
EXTD=YEAR: 2012
EXTT0=
EXTT1=
EXTT2=
EXTT3=
EXTT4=
EXTT5=
EXTT6=
EXTT7=
EXTT8=
EXTT9=
EXTT10=
EXTT11=
EXTT12=
EXTT13=
PLAYORDER=
